<?xml version="1.0" standalone="no"?>
<!DOCTYPE svg PUBLIC "-//W3C//DTD SVG 20010904//EN"
 "http://www.w3.org/TR/2001/REC-SVG-20010904/DTD/svg10.dtd">
<svg version="1.0" xmlns="http://www.w3.org/2000/svg"
 width="700.000000pt" height="700.000000pt" viewBox="0 0 700.000000 700.000000"
 preserveAspectRatio="xMidYMid meet">
<metadata>
Created by potrace 1.14, written by Peter Selinger 2001-2017
</metadata>
<g transform="translate(0.000000,700.000000) scale(0.100000,-0.100000)"
fill="#000000" stroke="none">
<path d="M1464 5956 c-46 -21 -74 -86 -76 -178 -2 -65 6 -201 17 -298 2 -19 7
-73 10 -120 8 -104 11 -131 21 -245 10 -113 10 -398 1 -490 -9 -87 -33 -167
-59 -194 -21 -23 2 -22 -366 -23 -118 0 -226 -3 -241 -8 -35 -10 -54 5 -69 50
-21 63 -30 402 -21 750 4 111 2 129 -16 159 -31 52 -64 72 -122 73 -63 0 -89
-16 -109 -68 -23 -61 -20 -264 6 -353 5 -17 7 -88 6 -158 -4 -182 -46 -343
-126 -490 -36 -64 -41 -82 -41 -138 -2 -167 91 -219 306 -174 50 11 101 22
115 24 26 5 193 30 265 39 96 13 309 21 555 20 288 0 494 -8 710 -28 30 -3 84
-8 120 -12 36 -3 106 -15 155 -25 119 -27 259 -33 321 -14 90 27 130 92 119
195 -3 29 -7 56 -10 59 -4 7 -41 216 -49 281 -15 117 -17 132 -32 311 -3 36
-7 148 -8 247 -4 205 -12 232 -77 265 -37 18 -119 25 -156 13 -33 -11 -55 -69
-55 -145 1 -36 3 -76 6 -89 21 -98 30 -215 30 -397 1 -174 -2 -220 -17 -267
-22 -70 -64 -118 -104 -118 -15 -1 -158 -1 -316 -2 -286 -1 -288 -1 -312 22
-51 48 -54 79 -50 540 2 234 6 443 9 465 3 22 6 94 7 160 2 215 -33 296 -150
348 -58 25 -156 32 -197 13z"/>
<path d="M5165 5618 c-20 -18 -26 -33 -27 -65 -1 -84 33 -131 276 -375 122
-124 196 -203 316 -338 36 -41 72 -81 81 -90 9 -10 64 -75 124 -146 149 -180
197 -227 268 -266 57 -30 70 -33 147 -33 76 0 91 3 139 30 29 16 70 47 90 67
33 35 141 202 141 218 0 7 -76 44 -270 130 -348 155 -599 338 -960 701 -81 82
-163 156 -187 168 -55 28 -105 27 -138 -1z"/>
<path d="M4622 5407 c-49 -62 -127 -148 -172 -192 -106 -104 -94 -93 -180
-159 -159 -124 -380 -234 -568 -286 -138 -37 -212 -70 -212 -94 0 -20 57 -126
88 -165 88 -109 230 -108 449 2 188 95 435 300 588 487 150 184 214 304 218
406 2 46 -2 57 -25 81 -17 16 -40 28 -62 29 -32 3 -38 -2 -124 -109z"/>
<path d="M4688 3181 c-59 -17 -78 -35 -93 -84 -8 -28 -15 -68 -15 -89 l0 -39
-207 5 c-115 3 -251 9 -303 13 -131 9 -156 8 -184 -10 -36 -24 -77 -117 -83
-186 -5 -50 -2 -62 16 -80 32 -32 59 -31 176 4 129 38 295 62 460 65 115 3
125 1 125 -17 0 -46 25 -101 61 -135 42 -40 54 -41 155 -13 68 19 108 64 125
139 l12 56 263 0 c268 0 308 -5 318 -39 3 -9 7 -35 10 -58 6 -52 23 -79 62
-98 51 -24 98 -25 143 -3 50 25 69 54 85 131 l13 62 274 1 c151 1 288 4 305 8
28 6 38 17 61 68 10 21 -99 56 -227 72 -78 11 -164 20 -280 30 -84 8 -130 15
-140 21 -4 3 -10 24 -14 47 -15 98 -35 125 -102 133 -40 5 -111 -12 -140 -33
-28 -19 -58 -72 -68 -118 -9 -41 -37 -66 -73 -66 -187 -2 -430 6 -457 13 -28
8 -37 17 -47 47 -23 74 -83 150 -119 153 -37 4 -101 4 -112 0z"/>
<path d="M1532 3090 c-77 -47 -101 -132 -103 -360 -1 -71 -6 -150 -11 -177 -5
-26 -11 -59 -14 -73 -13 -71 -77 -243 -126 -340 -83 -166 -275 -383 -426 -482
-141 -92 -240 -129 -441 -163 -192 -33 -194 -33 -238 -48 -36 -12 -38 -14 -39
-58 -4 -141 94 -222 264 -220 237 3 533 141 802 373 68 59 151 151 228 253 33
44 106 171 156 272 l61 121 140 -136 c77 -75 185 -177 240 -227 54 -49 135
-126 180 -170 327 -320 509 -487 587 -542 117 -80 240 -101 333 -58 92 43 279
273 271 332 -2 11 -16 21 -37 26 -297 74 -585 225 -942 495 -84 63 -258 204
-293 237 -6 5 -38 33 -71 62 -66 57 -81 71 -229 211 l-102 95 15 51 c8 28 33
107 55 176 43 135 48 181 23 233 -40 84 -217 157 -283 117z"/>
<path d="M5102 2754 c-34 -14 -45 -33 -79 -136 -15 -43 -22 -53 -43 -54 -14
-1 -81 -5 -150 -10 -203 -14 -521 -11 -548 4 -52 30 -178 -33 -217 -108 -16
-32 -22 -85 -11 -117 10 -31 37 -36 98 -18 61 18 207 22 236 6 27 -14 48 -73
56 -150 8 -78 33 -116 95 -145 45 -20 59 -21 536 -23 487 -1 491 -1 676 26
102 15 191 31 198 35 41 26 26 86 -32 130 -38 29 -73 32 -141 12 -25 -8 -49
-14 -51 -15 -11 -1 -72 -11 -100 -17 -16 -4 -229 -8 -473 -9 l-443 -2 -16 23
c-19 29 -19 141 -1 160 15 14 738 20 1328 11 154 -2 201 7 221 45 25 47 -24
80 -172 118 -69 18 -111 20 -378 20 l-301 0 -1 23 c-3 112 -72 180 -193 191
-25 3 -49 7 -54 9 -4 3 -22 -1 -40 -9z"/>
<path d="M4684 1969 c-40 -11 -46 -26 -49 -114 -3 -81 -17 -126 -69 -218 -39
-71 -83 -111 -186 -174 -126 -77 -273 -115 -428 -112 -107 2 -175 17 -263 58
-99 46 -126 26 -86 -62 40 -88 165 -202 257 -233 65 -23 301 -35 374 -21 96
20 272 106 358 175 172 139 252 281 257 459 3 90 -12 144 -51 189 -42 48 -75
63 -114 53z"/>
<path d="M5622 1966 c-42 -12 -87 -56 -108 -105 -22 -49 -26 -265 -7 -341 31
-122 63 -188 111 -231 107 -94 287 -177 445 -204 183 -32 311 -38 382 -17 116
33 170 75 257 197 63 89 98 157 139 274 24 69 29 95 20 104 -8 8 -57 -12 -199
-80 -230 -113 -283 -127 -462 -128 -243 0 -389 65 -457 203 -26 53 -28 65 -26
162 3 161 -14 190 -95 166z"/>
<path d="M5055 1939 c-12 -6 -27 -20 -34 -31 -13 -21 -17 -100 -6 -117 15 -24
26 -322 13 -366 -4 -16 -11 -77 -14 -135 l-6 -105 38 -38 c38 -37 40 -38 92
-32 30 3 64 10 77 15 13 5 25 7 28 4 11 -12 67 73 78 119 10 45 8 136 -6 206
-10 53 -8 180 5 243 11 53 11 75 1 107 -13 47 -70 106 -120 127 -38 16 -116
17 -146 3z"/>
</g>
</svg>
