<svg t="1616903940648" class="icon" viewBox="0 0 1050 1024" xmlns="http://www.w3.org/2000/svg" p-id="705" xmlns:xlink="http://www.w3.org/1999/xlink" width="205.078125" height="200"><defs><style/></defs><path d="M525.058291 513e-6A525.020359 525.020359.0 00359.022999 1023.092576c26.251531 4.944801 35.88142-11.28727 35.88142-25.246851.0-12.466231-.444246-45.494224-.656117-89.245635-146.040798 31.674751-176.840726-70.440354-176.840726-70.440354-23.886774-60.588341-58.401283-76.775988-58.401283-76.775988-47.561677-32.549574 3.673574-31.893457 3.673574-31.893457 52.714932 3.673574 80.408554 54.071592 80.408554 54.071592 46.813293 80.278698 122.895573 57.092466 152.90611 43.66598 4.726096-33.954075 18.248265-57.0993 33.250116-70.221648-116.594112-13.129183-239.141123-58.274844-239.141123-259.439756.0-57.307754 20.346474-104.124464 54.034002-140.873873-5.908474-13.259039-23.627061-66.630089 4.596239-138.946529.0.0 43.963283-14.089438 144.369749 53.811879a494.979067 494.979067.0 01262.501636.0c99.750348-67.901316 143.720466-53.811879 143.720466-53.811879 28.216465 72.319857 10.497878 125.690907 5.252357 138.946529a203.386142 203.386142.0 0153.805044 140.877291c0 201.687755-122.714457 246.091867-239.527276 259.002343 18.374704 15.7434 35.437174 47.947829 35.437174 97.119045.0 70.266073-.656117 126.702421-.656117 143.76489.0 13.778465 9.185644 30.188235 36.093292 24.932462A524.35399 524.35399.0 00525.054874 513e-6" p-id="706"/><path d="M380.15203 1021.694909h289.299931a24.566812 24.566812.0 01-15.832249-24.262674c0-17.06247.656117-73.498818.656117-143.764891.0-49.174632-17.06247-81.375644-35.437174-97.122462 116.812818-12.907059 239.530693-57.314589 239.530693-259.002343a203.389559 203.389559.0 00-53.808462-140.873874c5.245522-13.259039 22.964109-66.630089-5.252356-138.946528.0.0-43.970118-14.089438-143.720466 53.811878a494.968816 494.968816.0 00-262.498219.0c-100.409884-67.901316-144.369749-53.811878-144.369749-53.811878-28.226717 72.31644-10.504713 125.687489-4.596239 138.946528-33.687528 36.749409-54.034002 83.562702-54.034002 140.873874.0 201.164911 122.543594 246.310573 239.141123 259.439755-15.005268 13.122348-28.524021 36.267573-33.250116 70.218231-30.010536 13.429903-106.092817 36.612718-152.909527-43.66598.0.0-27.690205-50.398018-80.408554-54.071592.0.0-51.235251-.656117-3.673574 31.893457.0.0 34.514509 16.187646 58.401283 76.779405.0.0 30.803345 102.111688 176.844143 70.440354.211871 43.747995.6527 76.775988.6527 89.245635a25.048649 25.048649.0 01-14.735303 23.873105z" fill="#fff" p-id="707"/></svg>