<svg id="图层_1" data-name="图层 1" xmlns="http://www.w3.org/2000/svg" viewBox="0 0 1e3 1e3"><title>rss</title><rect width="1e30" height="1e30" style="fill:none"/><path d="M739.9666 9e2C739.9666 548.9 451.1 260 1e2 260V1e2c438.8333.0 8e2 361.1667 8e2 8e2zM209.7 680.5c60.4667.0 109.7667 49.3 109.7667 109.8334.0 60.4333-49.5 109.6666-110.0334 109.6666C149 9e2 1e2 850.8666 1e2 790.3333A109.9024 109.9024.0 01209.7 680.5zM630.3 9e2H474.8c0-205.6334-169.1666-374.8333-374.8-374.8333v-155.5c290.9.0 530.3 239.4666 530.3 530.3333z" style="fill:orange"/></svg>